<?xml version="1.0" ?><svg fill="none" height="512" viewBox="0 0 512 512" width="512" xmlns="http://www.w3.org/2000/svg"><path d="M422.88 89.1257C389.875 56.12 347.825 33.6425 302.045 24.5356C256.266 15.4287 208.814 20.1014 165.691 37.9629C122.567 55.8244 85.7082 86.0725 59.7755 124.882C33.8428 163.691 20.0009 209.319 20 255.996V452.666C20 463.097 24.1437 473.1 31.5195 480.476C38.8953 487.852 48.899 491.996 59.33 491.996H256C302.675 491.995 348.302 478.154 387.111 452.222C425.92 426.291 456.168 389.434 474.03 346.312C491.892 303.19 496.567 255.739 487.462 209.961C478.358 164.182 455.883 122.131 422.88 89.1257V89.1257ZM165.81 283.816C159.375 290.252 150.907 294.258 141.85 295.151C132.792 296.044 123.705 293.768 116.137 288.713C108.569 283.657 102.988 276.133 100.345 267.424C97.7022 258.715 98.1609 249.359 101.643 240.95C105.125 232.541 111.415 225.599 119.441 221.308C127.468 217.017 136.734 215.641 145.66 217.416C154.587 219.19 162.622 224.005 168.397 231.04C174.172 238.075 177.329 246.894 177.33 255.996C177.33 266.43 173.187 276.436 165.81 283.816V283.816ZM283.81 283.816C277.375 290.252 268.907 294.258 259.85 295.151C250.792 296.044 241.705 293.768 234.137 288.713C226.569 283.657 220.988 276.133 218.345 267.424C215.702 258.715 216.161 249.359 219.643 240.95C223.125 232.541 229.415 225.599 237.441 221.308C245.468 217.017 254.734 215.641 263.66 217.416C272.587 219.19 280.622 224.005 286.397 231.04C292.172 238.075 295.329 246.894 295.33 255.996C295.33 266.43 291.187 276.436 283.81 283.816V283.816ZM401.81 283.816C395.375 290.252 386.907 294.258 377.85 295.151C368.792 296.044 359.705 293.768 352.137 288.713C344.569 283.657 338.988 276.133 336.345 267.424C333.702 258.715 334.161 249.359 337.643 240.95C341.125 232.541 347.415 225.599 355.441 221.308C363.468 217.017 372.734 215.641 381.66 217.416C390.587 219.19 398.622 224.005 404.397 231.04C410.172 238.075 413.329 246.894 413.33 255.996C413.33 266.43 409.187 276.436 401.81 283.816V283.816Z" fill="black"/></svg>